<svg xmlns="http://www.w3.org/2000/svg" fill="none" viewBox="0 0 50 50" id="Github-Logo-2--Streamline-Logos" height="50"
     width="50">
    <path fill="#000000"
          d="M24.99166666666667 2.6750000000000003a22.887500000000003 22.887500000000003 0 0 0 -7.233333333333333 44.608333333333334c1.1416666666666668 0.19791666666666669 1.5041666666666667 -0.4729166666666667 1.5041666666666667 -1.0770833333333334 0 -0.5479166666666667 0.0125 -2.0645833333333337 0 -3.979166666666667 -6.36875 1.3791666666666669 -7.6833333333333345 -3.0166666666666666 -7.6833333333333345 -3.0166666666666666a6.05625 6.05625 0 0 0 -2.541666666666667 -3.347916666666667c-2.0770833333333334 -1.4208333333333336 0.15625 -1.3937500000000003 0.15625 -1.3937500000000003a4.80625 4.80625 0 0 1 3.5062500000000005 2.35625 4.875 4.875 0 0 0 6.660416666666667 1.9041666666666668 4.875 4.875 0 0 1 1.4520833333333334 -3.0500000000000003c-5.081250000000001 -0.58125 -10.425 -2.541666666666667 -10.425 -11.316666666666668a8.850000000000001 8.850000000000001 0 0 1 2.3583333333333334 -6.141666666666667 8.2125 8.2125 0 0 1 0.22291666666666668 -6.05625s1.9250000000000003 -0.6145833333333334 6.291666666666667 2.35a21.670833333333334 21.670833333333334 0 0 1 11.464583333333334 0c4.379166666666666 -2.9625 6.2875 -2.35 6.2875 -2.35 0.8437500000000001 1.916666666666667 0.925 4.083333333333334 0.22708333333333336 6.05625a8.839583333333335 8.839583333333335 0 0 1 2.3541666666666665 6.145833333333334c0 8.797916666666667 -5.352083333333334 10.729166666666668 -10.450000000000001 11.291666666666668a5.425000000000001 5.425000000000001 0 0 1 1.5666666666666669 4.220833333333333v6.335416666666667c0 0.6125 0.36875 1.2895833333333333 1.53125 1.0666666666666669a22.887500000000003 22.887500000000003 0 0 0 -7.250000000000001 -44.60625Z"
          stroke-width="2.0833"></path>
</svg>
