<svg xmlns="http://www.w3.org/2000/svg" viewBox="0 0 2961.6846 2870.8049">
    <path fill="#fe8e6d"
          d="M210.1514 1986.843c-48.155-5.403-87.211-41.6071-96.242-89.2148-1.9778-10.4264-1.9552-31.192.0455-41.7387 7.7903-41.0673 39.2458-74.6183 80.4425-85.8015 8.6074-2.3365 11.2384-2.579 28-2.579s19.3927.2425 28 2.579c41.1968 11.1832 72.6523 44.7342 80.4426 85.8015 2.0007 10.5467 2.0233 31.3123.0454 41.7387-7.417 39.0997-35.8096 71.6564-73.488 84.266-13.6406 4.565-32.7897 6.5708-47.246 4.9488m1638.2013-441.9968c-10.1047-1.4104-23.3921-5.6088-33.244-10.5041-22.6293-11.2445-38.4537-27.1452-49.7236-49.9635-6.7702-13.7078-9.589-23.4654-11.1587-38.628-2.1226-20.5028 1.5117-39.8395 11.1587-59.372 14.6515-29.665 39.331-49.6504 71.8782-58.2067 8.1475-2.1418 12.026-2.5528 25.1342-2.663 17.2066-.1446 24.6764.9606 38 5.6223 10.5527 3.6923 16.4698 6.6604 25.7356 12.9092 21.5652 14.5436 38.1165 37.8826 44.9342 63.3617 2.4243 9.06 2.6695 11.6299 2.6695 27.9765s-.2452 18.9164-2.6695 27.9765c-10.7874 40.315-43.3368 71.3234-84.1542 80.1702-8.5268 1.848-29.609 2.5703-38.5604 1.3209M2456.0023 661.78c-44.4536-4.6875-83.6026-38.383-94.613-81.4335-6.5577-25.6402-3.9614-52.2733 7.4054-75.968 14.1845-29.568 39.5904-50.6566 71.397-59.2642 8.7432-2.3661 11.4909-2.6312 27.7058-2.6732 15.7244-.0408 19.1125.2465 26.7995 2.2725 40.7516 10.7405 70.125 40.1139 80.8655 80.8655 2.0259 7.687 2.3132 11.075 2.2725 26.7995-.042 16.2148-.3072 18.9625-2.6733 27.7058-8.609 31.812-29.3508 56.8178-59.1357 71.2927-12.4122 6.0321-22.8975 9.0198-36.7921 10.4833-10.462 1.102-12.0707 1.0965-23.2316-.0804"/>
    <path fill="#9ba2ae"
          d="M1988.21 2870.1955c.7219-.289 1.5844-.2534 1.9167.079.3323.3323-.2584.5687-1.3125.5253-1.165-.048-1.402-.285-.6042-.6042zm23 0c.7219-.289 1.5844-.2534 1.9167.079.3323.3323-.2584.5687-1.3125.5253-1.165-.048-1.402-.285-.6042-.6042zm-87.4075-29.567-1.905-2.25 2.25 1.905c2.1144 1.7903 2.7052 2.595 1.905 2.595-.1898 0-1.2023-1.0124-2.25-2.25m154.095-1.75c.9955-1.1 2.035-2 2.31-2s-.3145.9-1.31 2-2.035 2-2.31 2 .3145-.9 1.31-2m-159.095-3.25-1.905-2.25 2.25 1.905c1.2375 1.0478 2.25 2.0603 2.25 2.25 0 .8003-.8048.2095-2.595-1.905m-29.173-69.75c0-1.925.2058-2.7124.4573-1.75.2516.9626.2516 2.5376 0 3.5-.2515.9626-.4573.175-.4573-1.75m221.054-5.5c.01-2.75.2017-3.7562.4316-2.2362s.2237 3.77-.014 5c-.2373 1.23-.4254-.014-.418-2.7637zm-221.054-5.5c0-1.925.2058-2.7124.4573-1.75.2516.9626.2516 2.5376 0 3.5-.2515.9626-.4573.175-.4573-1.75m29.268-70c.9955-1.1 2.035-2 2.31-2s-.3145.9-1.31 2-2.035 2-2.31 2 .3145-.9 1.31-2m158.905-3.25-1.905-2.25 2.25 1.905c2.1144 1.7903 2.7052 2.595 1.905 2.595-.1898 0-1.2023-1.0124-2.25-2.25m-153.905-1.75c.9955-1.1 2.035-2 2.31-2s-.3145.9-1.31 2-2.035 2-2.31 2 .3145-.9 1.31-2m64.3125-29.683c.7219-.289 1.5844-.2534 1.9167.079.3323.3323-.2584.5687-1.3125.5253-1.165-.048-1.402-.285-.6042-.6042zm23 0c.7219-.289 1.5844-.2534 1.9167.079.3323.3323-.2584.5687-1.3125.5253-1.165-.048-1.402-.285-.6042-.6042zm-1520-222c.7218-.289 1.5844-.2534 1.9166.079.3323.3323-.2583.5687-1.3125.5253-1.165-.048-1.4019-.285-.6041-.6042zm450 0c.7218-.289 1.5844-.2534 1.9166.079.3323.3323-.2583.5687-1.3125.5253-1.165-.048-1.4019-.285-.6041-.6042zm-544.94-32.067c-1.244-1.586-1.2086-1.6213.3775-.3775.9625.7549 1.75 1.5424 1.75 1.75 0 .823-.8212.2933-2.1276-1.3724m287.94-45.933c.7218-.289 1.5844-.2534 1.9166.079.3323.3323-.2583.5687-1.3125.5253-1.165-.048-1.4019-.285-.6041-.6042zm33.9375.021c.6875-.2774 1.8125-.2774 2.5 0s.125.5044-1.25.5044-1.9375-.227-1.25-.5044m-353.555-24.838c.0203-1.65.2444-2.2038.498-1.231.2535.973.2368 2.323-.0371 3-.274.6772-.4814-.119-.461-1.769zm675.133-7c0-3.85.1853-5.3024.4018-3.2276s.2128 5.2248-.01 7c-.221 1.7752-.398.078-.3936-3.7723zm-675.1701-6.5c0-1.375.227-1.9374.5044-1.25.2774.6876.2774 1.8126 0 2.5-.2775.6876-.5044.125-.5044-1.25m324.1111-24.693c.973-.2534 2.323-.2368 3 .037.677.274-.119.4814-1.769.461-1.65-.02-2.204-.2444-1.231-.498m24.481.031c.6875-.2773 1.8125-.2773 2.5 0 .6875.2775.125.5045-1.25.5045s-1.9375-.227-1.25-.5044m12.0625-1.0207c.7218-.289 1.5844-.2534 1.9166.079.3323.3323-.2583.5687-1.3125.5253-1.165-.048-1.4019-.285-.6041-.6042zm-333.8125-39.6948c0-.2076.7875-.9951 1.75-1.75 1.586-1.2438 1.6214-1.2085.3775.3776-1.3063 1.6657-2.1275 2.1955-2.1275 1.3724m615.4529-5.8724-3.953-4.25 4.25 3.9529c3.9526 3.6762 4.7096 4.547 3.953 4.547-.1633 0-2.0758-1.9124-4.25-4.25m-607.453-2.1276c0-.2076.7876-.9951 1.75-1.75 1.5861-1.2438 1.6215-1.2085.3776.3776-1.3063 1.6657-2.1275 2.1955-2.1275 1.3724m69.75-30.2847c.6876-.2774 1.8126-.2774 2.5 0 .6876.2774.125.5044-1.25.5044s-1.9374-.227-1.25-.5044m14 0c.6876-.2774 1.8126-.2774 2.5 0 .6876.2774.125.5044-1.25.5044s-1.9374-.227-1.25-.5044m436 0c.6876-.2774 1.8126-.2774 2.5 0 .6876.2774.125.5044-1.25.5044s-1.9374-.227-1.25-.5044m14 0c.6876-.2774 1.8126-.2774 2.5 0 .6876.2774.125.5044-1.25.5044s-1.9374-.227-1.25-.5044m168-221c.6876-.2774 1.8126-.2774 2.5 0 .6876.2774.125.5044-1.25.5044s-1.9374-.227-1.25-.5044m765.519-.031c.973-.2535 2.323-.237 3 .037.6772.2739-.119.4813-1.769.461-1.65-.02-2.2038-.2445-1.231-.4981zm-835.3965-29.057c-1.2438-1.5861-1.2085-1.6214.3776-.3776.9625.7549 1.75 1.5424 1.75 1.75 0 .823-.8212.2933-2.1276-1.3724m-35.7935-93.8333c.048-1.165.285-1.402.6042-.6042.2889.7219.2533 1.5844-.079 1.9167-.3322.3323-.5686-.2584-.5251-1.3125zm978 0c.048-1.165.285-1.402.6042-.6042.2889.7219.2534 1.5844-.079 1.9167-.3323.3323-.5687-.2584-.5253-1.3125zm-949.079-61.7293c0-.1721 1.4626-1.6346 3.25-3.25l3.25-2.9371-2.937 3.25c-2.7378 3.0295-3.563 3.7097-3.563 2.937m917.4372-2.9371-2.9371-3.25 3.25 2.937c1.7875 1.6155 3.25 3.078 3.25 3.25 0 .7727-.8251.092-3.563-2.937M553.4764 1003.2953c.048-1.165.285-1.402.6042-.6042.2889.7219.2533 1.5844-.079 1.9167-.3322.3323-.5686-.2584-.5251-1.3125zm537 0c.048-1.165.285-1.402.6042-.6042.2889.7219.2534 1.5844-.079 1.9167-.3323.3323-.5687-.2584-.5253-1.3125zm-978.7508-9.9167c.004-3.85.1852-5.3025.4017-3.2277.2164 2.0747.2128 5.2247-.008 7-.221 1.7752-.398.0777-.3936-3.7723zm221 0c.004-3.85.1852-5.3025.4017-3.2277.2164 2.0747.2128 5.2247-.008 7-.221 1.7752-.398.0777-.3936-3.7723zm220.7508-9.0834c.048-1.165.285-1.4019.6042-.6041.2889.7218.2533 1.5843-.079 1.9166-.3322.3323-.5686-.2583-.5251-1.3125zm537 0c.048-1.165.285-1.4019.6042-.6041.2889.7218.2534 1.5843-.079 1.9166-.3323.3323-.5687-.2583-.5253-1.3125zm-876.329-101.079c.6876-.2773 1.8126-.2773 2.5 0 .6876.2775.125.5045-1.25.5045s-1.9374-.227-1.25-.5044m14 0c.6876-.2773 1.8126-.2773 2.5 0 .6876.2775.125.5045-1.25.5045s-1.9374-.227-1.25-.5044m428.5191-.0306c.973-.2536 2.323-.2369 3 .037.677.274-.119.4814-1.769.461s-2.204-.2444-1.231-.498m329 0c.973-.2536 2.323-.2369 3 .037.677.274-.119.4814-1.769.461s-2.204-.2444-1.231-.498m872.481-220.9693c.6875-.2774 1.8125-.2774 2.5 0s.125.5044-1.25.5044-1.9375-.227-1.25-.5044m172 0c.6875-.2774 1.8125-.2774 2.5 0s.125.5044-1.25.5044-1.9375-.227-1.25-.5044m70.25-28.7153c0-.2077.7875-.9952 1.75-1.75 1.586-1.2439 1.6214-1.2085.3776.3776-1.3064 1.6657-2.1276 2.1954-2.1276 1.3724m6-6c0-.2077.7875-.9952 1.75-1.75 1.586-1.2439 1.6214-1.2085.3776.3776-1.3064 1.6657-2.1276 2.1954-2.1276 1.3724m-352.9211-66.2058c.048-1.165.285-1.4019.6042-.6041.2889.7218.2534 1.5843-.079 1.9166-.3323.3323-.5687-.2583-.5253-1.3125zm383.079-2.4166c0-1.375.227-1.9375.5044-1.25s.2774 1.8125 0 2.5-.5044.125-.5044-1.25m.037-13.5c.02-1.65.2445-2.204.498-1.231s.237 2.323-.037 3c-.2738.677-.4812-.119-.461-1.769m-383.037-2.5c0-1.375.227-1.9375.5044-1.25s.2774 1.8125 0 2.5-.5044.125-.5044-1.25m31.842-68.5c1.8659-1.925 3.6174-3.5 3.8924-3.5s-1.0265 1.575-2.8923 3.5-3.6173 3.5-3.8923 3.5 1.0265-1.575 2.8923-3.5m252.8126-32.1832c.7219-.2888 1.5844-.2533 1.9167.079.3323.3322-.2584.5686-1.3125.5252-1.165-.048-1.402-.285-.6042-.6042m-1090-222c.7218-.2888 1.5844-.2533 1.9166.079.3323.3322-.2583.5686-1.3125.5252-1.165-.048-1.4019-.285-.6041-.6042m-98.6546-101.3168c0-1.375.227-1.9375.5044-1.25s.2774 1.8125 0 2.5c-.2775.6875-.5044.125-.5044-1.25m0-17c0-1.375.227-1.9375.5044-1.25s.2774 1.8125 0 2.5c-.2775.6875-.5044.125-.5044-1.25M948.21.1954c.7218-.2888 1.5844-.2533 1.9166.079s-.2583.5686-1.3125.5252c-1.165-.048-1.4019-.285-.6041-.6042"/>
    <path fill="#3f9dfe"
          d="M944.9176 2869.7639c-9.6657-1.4075-20.8937-4.6291-30.365-8.7124-22.3314-9.6276-42.9757-28.9745-54.1337-50.732-18.043-35.1825-15.6027-77.1456 6.4518-110.941 5.395-8.267 22.4898-25.1254 31.4315-30.997 13.214-8.6768 30.5734-15.048 47.5953-17.4681 4.5198-.6426 115.2433-1.0001 312.5-1.0091 335.1272-.015 315.2273-.3685 334.026 5.9296 17.2998 5.796 30.783 14.0214 43.5128 26.5447 16.598 16.3289 27.0412 36.049 31.5327 59.5442 1.5877 8.3055 1.5877 28.606 0 36.9116-7.845 41.0365-35.497 72.8414-74.768 85.9964-19.1416 6.412 1.5076 6.0475-335.3035 5.92-168.575-.064-309.191-.508-312.4799-.987m406.4313-442.4321c-21.7088-3.9322-42.834-15.0836-58.4736-30.8666-9.1425-9.2263-15.315-17.9816-20.8978-29.6424-20.6296-43.0885-12.2843-92.4802 21.2999-126.0643 18.424-18.4241 41.7937-29.386 67.9325-31.8647 14.6647-1.3907 1102.9728-1.3717 1116.1836.019 11.7916 1.2417 22.926 4.1587 34.0993 8.9332 24.3505 10.4054 46.6514 33.0572 56.9865 57.8832 27.3989 65.8153-12.8248 139.4564-82.8421 151.6664-7.4486 1.299-77.7607 1.4715-567.6207 1.3929-468.2443-.075-560.346-.312-566.6676-1.4571zM99.3975 1545.3527c-.825-.1616-4.875-.8425-9-1.5131-9.3278-1.5163-20.3565-5.1471-29.5-9.7117-30.4498-15.2012-51.4006-42.2991-59.1853-76.551-2.0384-8.9685-2.325-33.5985-.491-42.1983 9.6677-45.3344 40.2318-76.6826 86.049-88.2563 6.1577-1.5555 53.8203-1.6977 672.6273-2.0075 498.0726-.2494 668.3937-.043 675.4933.818 48.0744 5.8316 86.4868 41.7104 95.4947 89.1962 1.9415 10.2348 1.9415 30.2644 0 40.4992-7.4481 39.2633-35.5917 71.6467-73.1845 84.2099-19.522 6.524 37.1747 6.0397-692.8035 5.9186-365.2-.061-664.675-.2424-665.5-.404m2186.814-.5521c-33.5491-4.9214-63.37-27.0106-79.2262-58.685-6.8727-13.729-11.5763-34.1996-11.5838-50.4146-.024-51.5624 32.6626-94.932 81.496-108.132l8-2.1623 288-.3243c215.6615-.2428 290.2606-.031 297 .845 52.73 6.8516 91.7872 53.425 91.7872 109.4512 0 48.3634-28.9702 90.2238-72.7872 105.1738-16.3784 5.5882-.8267 5.328-311 5.2002-157.3-.065-288.5587-.4932-291.686-.952m-885.0381-442.9022c-24.341-5.1323-39.3846-13.401-57.276-31.481-16.256-16.4273-24.96-32.607-29.6085-55.0388-2.337-11.2767-2.4918-30.1142-.3408-41.4533 3.3859-17.8488 9.4198-31.1391 22.5564-49.6823 49.5258-69.9092 65.3649-136.3981 48.3609-203.0077-4.4111-17.2793-8.9924-29.5204-18.0593-48.2539-8.9814-18.5568-14.173-27.3552-29.1997-49.4863-19.19-28.2624-24.0367-41.4255-24.897-67.6165-.4256-12.9554-.1848-17.0597 1.4668-25 2.594-12.471 7.772-26.0267 13.8292-36.2035 5.7667-9.689 23.6126-28.3233 32.892-34.3452 38.0676-24.7039 84.9326-24.7039 123 0 9.2796 6.022 27.1255 24.6563 32.8922 34.3452 6.057 10.1768 11.235 23.7326 13.8292 36.2035 1.6516 7.9403 1.8924 12.0446 1.4668 25-.8603 26.191-5.7071 39.354-24.897 67.6165-15.0268 22.1311-20.2183 30.9295-29.1997 49.4863-9.067 18.7335-13.6482 30.9746-18.0593 48.2539-17.004 66.6096-1.165 133.0985 48.3609 203.0077 13.1366 18.5432 19.1705 31.8335 22.5564 49.6823 2.151 11.3391 1.996 30.1766-.3408 41.4533-4.6486 22.4319-13.3526 38.6115-29.6086 55.0389-11.1565 11.2742-17.7782 16.2568-29.5 22.1979-20.1132 10.1942-48.2576 13.9147-70.2241 9.283m-12.8207-882.1193c-15.0966-1.9525-33.289-8.733-46.452-17.313-33.0497-21.5429-51.9448-58.1134-50.1627-97.0875.7187-15.7188 4.0614-28.6168 11.144-43 14.81-30.0754 39.3412-49.6605 74.2948-59.315l9.7207-2.685 309.8-.2641c266.5464-.2272 311.1546-.0615 319.5 1.1868 44.1445 6.6029 79.4996 37.0728 91.6442 78.9814 8.9186 30.7762 3.6365 64.3014-14.3248 90.9189-17.631 26.1279-45.3053 43.437-77.1152 48.2324-8.1055 1.222-54.5362 1.415-315.5042 1.3122-168.3-.0663-308.9452-.5015-312.5448-.9671"/>
    <path fill="#00dacb"
          d="M652.3034 1986.8495c-67.4023-7.5327-111.9892-72.5891-94.9018-138.471 2.9482-11.367 12.573-30.3964 20.2314-40 22.2925-27.9542 54.4422-42.5551 90.7645-41.221 49.948 1.8348 90.152 34.7108 103.1236 84.3269 2.007 7.6769 2.3189 11.2209 2.2786 25.8942-.0417 15.1998-.3306 18.0589-2.7284 27-3.2142 11.9858-11.6215 29.549-18.4293 38.5-12.1631 15.992-30.7829 30.1918-48.6668 37.1142-15.1203 5.8526-35.938 8.615-51.6718 6.8567m1637 .01c-25.2667-2.842-51.9583-16.1948-68.4881-34.262-12.2987-13.4426-21.7102-30.8488-26.3793-48.7874-2.805-10.7761-3.7996-31.2858-2.087-43.0318 6.3975-43.8798 38.6877-79.4835 82.5485-91.0196 7.8966-2.077 11.1455-2.358 26.5-2.2921 14.5697.062 18.789.4294 25.198 2.1915 16.975 4.6673 25.2958 8.9617 49.9914 25.8013 27.183 18.5355 51.5308 31.0673 76.3106 39.2767 24.165 8.0059 43.0512 11.147 67.021 11.147 50.8332 0 94.9179-16.253 152.8477-56.3515 22.4758-15.5575 38.6627-21.4213 61.7843-22.3815 15.602-.648 25.9619.7445 39.847 5.3558 56.048 18.6135 87.0762 78.5796 70.4126 136.0819-16.3205 56.3189-75.5435 90.0063-132.4432 75.3368-12.376-3.1907-23.7943-8.5822-35.9694-16.9841-46.6158-32.1691-79.3296-47.6541-116-54.9083-62.8638-12.4357-122.1 3.2174-188.651 49.8509-24.935 17.4724-42.037 24.0088-66.349 25.3586-4.675.2596-11.9173.088-16.0941-.3822m-443.9545-884.524c-35.155-6.3855-66.6291-30.6696-81.5188-62.8964-13.6644-29.575-13.4406-62.8668.6215-92.4224 15.3856-32.3376 42.5303-53.3328 79.9707-61.8536 6.9647-1.5851 37.73-1.7243 450.4752-2.0384 306.3312-.2332 446.4496-.0107 454.1814.7209 14.474 1.3696 26.1678 4.7403 39.8186 11.4775 28.5106 14.0712 48.6103 39.1445 57.254 71.4212 2.308 8.6187 2.58 11.479 2.58 27.1343 0 15.716-.2667 18.4967-2.6163 27.2773-5.4235 20.2679-15.9484 37.9707-31.3004 52.6473-14.2706 13.6429-28.1553 21.3525-49.3865 27.4224l-7.5308 2.153-452.5.164c-379.5141.1377-453.7176-.057-460.0486-1.207M462.7216 661.8244c-40.5517-3.977-77.0549-30.9175-92.438-68.222-5.1585-12.5094-7.1202-21.997-7.6547-37.0204-.7498-21.0787 2.392-36.0064 11.3252-53.8087 14.0097-27.9189 40.2122-48.8792 72.1062-57.6801l9.8372-2.7145 265.5-.2953c192.427-.214 267.6757.0137 273.4053.8274 43.9867 6.247 79.7928 37.1133 92.0269 79.3307 7.4927 25.8559 5.1128 52.5336-6.8814 77.1372-15.4713 31.7359-43.0256 52.929-79.5794 61.2078-6.904 1.5636-27.293 1.7053-268.4714 1.866-143.55.0955-264.6792-.187-269.176-.628"/>
    <path fill="#283753"
          d="M1987.683 2869.7792c-55.6561-6.4794-97.2855-53.293-97.2855-109.4006 0-73.0328 69.5575-125.7486 139.8036-105.9535 12.178 3.4317 29.1333 12.142 38.9958 20.033 19.1455 15.3183 32.0895 35.9266 38.4478 61.213 3.1492 12.524 3.1492 36.8909 0 49.4149-8.3837 33.3414-28.3356 58.678-57.731 73.3114-12.9 6.4218-24.5222 9.926-37.8506 11.4122-10.682 1.191-13.9226 1.187-24.38-.03zM460.8976 2427.77c-15.8643-2.2861-34.5056-9.6576-48.2146-19.0661-44.2218-30.3492-59.8601-88.458-36.8791-137.0357 11.0356-23.3275 33.9024-44.7726 58.1011-54.489 16.703-6.7065 21.9971-7.6526 42.9926-7.683 17.5772-.025 19.7488.1756 29 2.6814 12.2056 3.3062 28.9418 11.4453 41 19.9392 38.007 26.7725 76.37 44.304 113 51.64 17.0734 3.4195 29.6937 4.4126 48.9436 3.8515 20.5425-.5988 34.5363-2.7413 53.3731-8.1715 31.0474-8.9503 58.0771-22.244 93.608-46.0376 18.2656-12.2317 21.7452-14.1198 33.954-18.4247 11.9774-4.2232 23.5414-6.096 37.6418-6.096 51.4646 0 95.5095 33.453 108.6517 82.5235 2.3785 8.8808 2.6798 11.8436 2.7435 26.9765.062 14.8169-.2321 18.1558-2.2934 26-16.3076 62.0576-79.0472 97.6046-141.0104 79.8936-12.2114-3.4904-23.4515-9.1173-37.4631-18.7544-69.0321-47.4798-130.5448-64.165-194.1878-52.673-37.0387 6.688-71.235 21.7783-113.8634 50.246-18.6659 12.4653-27.4618 17.121-39.1884 20.743-14.7619 4.5596-34.6818 6.1306-49.9092 3.9363m628-442.35c-23.8183-4.3782-47.1465-16.8251-63.0527-33.6422-21.0312-22.2354-32.0348-52.0011-30.0228-81.214 3.633-52.749 43.9594-94.9565 98.0755-102.6505 9.6328-1.3695 772.3672-1.3695 782 0 33.346 4.741 62.5289 22.8538 80.2485 49.8075 29.0398 44.1732 22.3772 101.337-16.0676 137.8558-4.0848 3.8802-10.238 8.9638-13.6737 11.297-9.2062 6.2518-25.4763 13.7015-36.67 16.7904l-9.8372 2.7145-392 .1642c-315.8314.1322-393.3602-.086-399-1.1226m-885-883.137c-51.2267-9.0667-88.8133-51.5076-91.2135-102.9938-2.4831-53.264 31.2156-98.8386 83.2135-112.5394 7.8257-2.062 11.2833-2.3713 26.5-2.3713s18.6742.3094 26.5 2.3713c44.4605 11.7148 75.9386 46.8428 82.561 92.1341.7409 5.0662.9958 13.0404.6525 20.4053-1.8292 39.2368-24.269 74.1787-59.25 92.2607-20.7612 10.7316-46.4147 14.7242-68.9635 10.7332m445.0835.4887c-23.9353-3.4908-44.208-13.651-61.6421-30.8932-15.7155-15.5426-24.424-30.3251-30.1434-51.1684-2.0218-7.3682-2.2798-10.5287-2.231-27.3316.0474-16.3592.3592-20.0992 2.2436-26.9085 11.7308-42.3893 45.7033-73.7418 87.872-81.0954 12.901-2.2498 341.7337-2.2498 354.6347 0 48.7673 8.5043 86.8397 49.9567 90.4719 98.5039 1.9302 25.7975-3.9742 49.7593-17.2718 70.0953-7.1487 10.9324-24.0897 27.2337-34.9688 33.6485-13.723 8.0915-27.6717 13.0223-43.0486 15.2173-8.7209 1.2449-337.3575 1.1804-345.9165-.068zM1845.349 660.3465c-22.915-4.195-44.677-16.0275-61.07-33.2051-15.5701-16.3155-25.4228-35.9022-28.895-57.4419-2.0151-12.5003-.8374-35.2716 2.3957-46.3208 10.9678-37.483 39.746-66.3225 76.7299-76.8936 15.5243-4.4374 19.6148-4.6066 111.2104-4.6024 95.6243.004 97.1994.0868 114.8872 6.0128 35.5044 11.895 62.4523 40.2383 72.344 76.09 3.228 11.6997 4.3949 32.6862 2.4813 44.6296-6.9735 43.5262-38.5757 77.8812-82.8654 90.0837l-9.6695 2.664-95 .1828c-77.1366.1484-96.4194-.077-102.5486-1.1991M947.3992 219.7513c-35.9763-4.1636-67.965-26.1702-84.5898-58.1936-8.8759-17.0972-12.412-31.6775-12.412-51.1791s3.5361-34.082 12.412-51.1792c23.8357-45.9132 77.7827-69.081 127.3861-54.7064 42.5162 12.3207 72.8627 47.5424 79.1672 91.8856 3.7939 26.6852-4.4381 57.9629-21.0554 80-18.2687 24.2272-46.076 40.067-76.2442 43.431-10.7294 1.1964-13.8871 1.1889-24.6639-.0583"/>
</svg>
