<svg xmlns="http://www.w3.org/2000/svg" width="364" height="414.667" viewBox="0 0 273 311">
    <path fill="currentColor"
          d="M69.5 42C33.8 62.3 4 79.7 3.3 80.6 2.3 82 2 100.6 2 172c0 79.4.2 89.8 1.6 91.8 2.6 3.8 5.3 2.7 15.7-6.3C24.7 252.8 30 249 31 249c1.1 0 4.1 1.3 6.8 2.9 24 14.1 97.4 55.1 98.8 55.1 1.9 0 1.3.3 40.4-21.8 15.1-8.6 41.2-23.3 58-32.8s31.7-18.2 33.3-19.4l2.7-2.2V140c0-81.3-.2-91-1.6-92.4-2.9-3-5.7-1.8-15.7 6.9-5.4 4.7-10.5 8.5-11.4 8.5-.8 0-24.6-13.1-52.7-29-28.2-16-52.1-29-53.2-29-1 .1-31.1 16.7-66.9 37m95.3 14.2C219 87 215.9 85.4 218.3 84.3c1.2-.6 4.5-3.1 7.3-5.7 5.8-5.2 10.5-6.2 12.4-2.7.6 1.3 1 24.7 1 69.1v67.1l-2.2 2.2c-3 2.9-98 56.7-100.1 56.7-1.6 0-19.2-9.7-60.5-33.3-21.8-12.4-20.2-12.1-28.8-4.3-6.2 5.5-10.4 6.2-12.2 2.1-1.8-3.9-1.7-134.5.1-136.8.6-.9 22.3-13.6 48.2-28.2 25.9-14.7 47.9-27.3 49-28 1.1-.8 2.8-1.4 3.8-1.4 1-.1 13.8 6.7 28.5 15.1"/>
</svg>
