<svg xmlns="http://www.w3.org/2000/svg" fill="none" viewBox="0 0 110 110">
    <rect width="100%" height="100%" fill="#241F21"/>
    <path fill="#fff"
          d="M71.6466 15.4305H57.377c-.4592 0-.8286.3745-.8286.8322V52.926c0 .4612.3728.8322.8286.8322h1.8851c.4593 0 .8287-.3745.8287-.8322V19.5501c0-.4613.3728-.8323.8286-.8323h10.5097c4.9614 0 8.2863 3.1763 8.2863 7.941 0 4.7644-3.3249 7.9407-8.2863 7.9407h-7.24c-.4593 0-.8287.3745-.8287.8323v1.616c0 .4611.3728.8321.8286.8321h7.4577c6.705 0 11.6145-4.7056 11.6145-11.2247 0-6.5157-4.9096-11.2247-11.6146-11.2247m-26.6817 45.288v-1.6193c0-.4612-.3729-.8323-.8287-.8323h-24.51c-.4593 0-.8287.3745-.8287.8323v36.6633c0 .4612.373.8322.8286.8322h24.5102c.4591 0 .8286-.3745.8286-.8322V94.143c0-.4612-.3728-.8322-.8286-.8322H23.2238c-.4593 0-.8287-.3745-.8287-.8323V80.7164h-.0069v-8.1905h.007V62.3865c0-.4612.3728-.8323.8285-.8323h20.9126c.4558 0 .8286-.3745.8286-.8357"/>
    <path fill="#fff"
          d="M41.3967 77.4742v-1.4564c0-.4612-.373-.8323-.8286-.8323H27.5c-.4592 0-.8287.3745-.8287.8323v1.4564c0 .4612.3729.8322.8287.8322h13.068c.4558.0035.8287-.371.8287-.8322M90.1665 58.267h-11.259c-.459 0-.828.3744-.828.8322v27.8763c0 .8565-1.133 1.1547-1.551.4126L60.3295 58.69c-.149-.2601-.422-.423-.722-.423h-2.23c-.46 0-.829.3744-.829.8322v36.6633c0 .4612.373.8322.829.8322h1.885c.459 0 .828-.3745.828-.8322v-27.873c0-.8564 1.133-1.1546 1.551-.4125l16.203 28.6947c.148.26.421.423.721.423h2.231c.459 0 .828-.3745.828-.8322v-22.023h8.546c.569 0 1.032-.4646 1.032-1.0403v-13.392c0-.5756-.463-1.0403-1.036-1.0403m-6.967 2.7116c.269-.097.559.0763.604.3572.035.2184-.097.423-.304.5028-.604.2254-.939.6554-.939 1.2067 0 .9502.842 1.4946 2.348 1.4946 1.505 0 2.348-.5444 2.348-1.4946 0-.6242-.321-1.0195-1.047-1.2171-.224-.0624-.372-.274-.338-.5063v-.0035c.038-.2635.297-.4473.553-.378 1.063.2913 1.681 1.0507 1.681 2.1049 0 1.5119-1.191 2.4204-3.197 2.4204s-3.197-.912-3.197-2.4239c0-.9536.573-1.7303 1.488-2.0632m-.187 5.614c.263-.1178.567.0556.622.34v.0104c.038.201-.059.4126-.249.4924-.504.208-.825.6692-.825 1.2345 0 .6172.352 1.0472.867 1.0472.421 0 .631-.3086.901-1.3108.262-.9501.621-2.0667 1.909-2.1014 1.146-.0347 1.864.8184 1.864 2.1916 0 1.1686-.59 2.0147-1.612 2.351-.269.0902-.556-.0797-.601-.3606l-.003-.014c-.035-.2253.107-.4368.324-.5062.667-.215 1.04-.7316 1.04-1.4702 0-.8461-.342-1.2657-1.015-1.2657-.553 0-.763.3502-1.078 1.4599-.41 1.4425-.866 1.9522-1.733 1.9522-.998 0-1.716-.8253-1.716-1.9696.004-.9362.518-1.7303 1.305-2.0806M47.4094 27.7717c0-7.934-6.4046-14.3664-14.3076-14.3664-7.8996 0-14.3042 6.4325-14.3042 14.3664V41.039c0 7.934 6.401 14.3664 14.3007 14.3664l.0034-.0035c.0035-7.9305 6.4047-14.3629 14.3008-14.3629l.0034-.0035V27.7717z"/>
    <path fill="#fff"
          d="M46.3184 41.5174 33.5782 54.313c.5316-6.8139 5.9591-12.265 12.7401-12.7956m1.091-.4786c-7.8996 0-14.3042 6.4325-14.3042 14.3665z"/>
</svg>
