<svg xmlns="http://www.w3.org/2000/svg" viewBox="0 0 2616 1750">
    <path fill="#940f7d"
          d="M1598 368c2.9687 2.9687 3.7462 6.7273 5.0195 10.6406l.8933 2.7051c.975 2.9655 1.9385 5.9344 2.8997 8.9043l1.0077 3.1009C1637.6802 485.4594 1657.1747 580.8302 1671 725l.151 2.2005c3.2056 47.1393 3.6552 94.594 1.849 141.7995l-.0918 2.4894c-3.4618 93.4794-16.4964 186.691-38.9082 277.5106l-.6492 2.637C1619.0444 1209.5974 1600.773 1266.4197 1579 1322l-.8165 2.0854C1567.7088 1350.787 1556.084 1376.9913 1544 1403c-4.2835-.556-7.6435-1.5695-11.5078-3.4844l-3.198-1.5656-3.4192-1.7a5015 5015 0 0 0-7.2773-3.5586l-1.8875-.9234c-6.7525-3.295-13.5728-6.4389-20.3977-9.5805-9.8652-4.5515-19.6495-9.221-29.3125-14.1875.6248-3.8515 1.7781-7.03 3.414-10.5664.506-1.106 1.0118-2.212 1.533-3.3516l.8254-1.7905C1509.104 1273.2845 1536.5901 1190.0502 1587 871l.0886-2.167c2.5077-62.5992.7933-125.5465-6.0886-187.833l-.2474-2.2465C1574.38 621.2464 1564.868 564.189 1551 508l-.6524-2.65c-8.7007-35.2489-18.597-70.2574-30.5021-104.569C1519 398 1519 398 1519 395c22.0551-7.881 44.1895-15.48 66.4302-22.8208 4.1927-1.385 8.3818-2.78 12.5698-4.1792"/>
    <path fill="#97c00d"
          d="M2394 341c26.4252 101.9634 39.4945 209.1166 6.9375 922.375l-.4406 2.172a5862 5862 0 0 1-2.907 14.2264l-.7499 3.672-.6918 3.3412-.6017 2.92C2395 1292 2395 1292 2394 1294c-9.2427-1.4048-18.3287-3.3439-27.4336-5.4414a10055 10055 0 0 0-4.3518-.9932 8578 8578 0 0 1-11.3422-2.5979c-4.6041-1.0564-9.2093-2.1086-13.8143-3.1608-3.5793-.8178-7.1583-1.6365-10.7367-2.4577l-3.8856-.8903-3.4097-.7824A299 299 0 0 0 2311 1276q.9329-4.9384 1.875-9.875l.6555-3.4397c1.5051-7.835 3.0703-15.6556 4.6765-23.4705 21.89-106.801 35.523-215.1206 40.9805-326.5273l.112-2.2862c1.494-31.1805 1.909-62.3771 1.888-93.5888l-.0008-2.7164c-.012-32.4022-.5024-64.731-2.1867-97.0961l-.1985-3.8167C2356.8063 675.3723 2353.992 637.657 2350 600l-.3015-2.8487C2341.215 517.4331 2327.9221 438.3467 2311 360c8.3452-3.0416 16.9026-4.8918 25.5586-6.793q2.395-.531 4.7898-1.0633a6003 6003 0 0 1 9.9824-2.206 6821 6821 0 0 0 12.8083-2.8347c3.2878-.73 6.576-1.4579 9.8645-2.1849q2.363-.5226 4.726-1.0467a4076 4076 0 0 1 6.5768-1.4503l3.7803-.8339C2392 341 2392 341 2394 341"/>
    <path fill="#f29400"
          d="M1640 1c1.447 1.6604 1.447 1.6604 2.621 3.8477l1.3729 2.4856 1.4436 2.7292a4031 4031 0 0 0 3.1875 5.7969l1.6719 3.0644c2.7802 5.0217 5.7197 9.948 8.6406 14.8887 5.3937 9.1864 10.5438 18.485 15.5786 27.8723 2.8548 5.3214 5.7603 10.5952 8.7964 15.8152 2.6358 4.5586 5.0746 9.1702 7.4063 13.8906q1.0598 2.133 2.1203 4.2656l1.0861 2.1866c1.6928 3.3976 3.406 6.7848 5.1178 10.1728 8.6868 17.2258 17.1481 34.521 25.1034 52.1a3301 3301 0 0 0 2.6749 5.8854C1764.3912 248.622 1793.8039 334.3064 1817 422l.6172 2.3232c26.874 101.217 41.0492 205.2257 47.2027 309.6327q.1785 3.0188.3641 6.0374c.1667 2.7129.3265 5.426.484 8.1395l.1504 2.406c.1009 1.8186.1475 3.6401.1816 5.4612-5.6311 5.6311-31.4772 2.6602-39.2129 2.93-3.7781.1322-7.556.2698-11.334.4079q-3.664.1304-7.3281.2598l-3.3599.123c-7.924.2714-15.8367.3224-23.7651.2793l-.1562-2.3724C1774.8042 666.1832 1765.0913 575.4552 1738 460l-.7207-2.9056c-7.2056-28.9742-15.31-57.6184-24.2793-86.0944l-.8457-2.692c-24.1694-76.8647-54.8377-151.4807-91.1816-223.39-1.5104-2.9886-2.9967-5.9884-4.4766-8.9922-6.502-13.166-13.3697-26.0883-20.4961-38.9258l-1.6362-2.9639c-5.4754-9.9147-10.9951-19.7958-16.8091-29.5166l-1.122-1.8782a1421 1421 0 0 0-5.4552-9.0483l-1.9697-3.2727-1.7612-2.898C1566 45 1566 45 1566 42c2.1577-1.6472 2.1577-1.6472 5.211-3.4492l3.425-2.0469 3.739-2.1914a2282 2282 0 0 0 3.8152-2.2734 2787 2787 0 0 1 5.9015-3.516c6.6208-3.9322 13.1716-7.9728 19.7208-12.0231q3.2028-1.9672 6.4063-3.9336c3.5378-2.1748 7.0595-4.371 10.5624-6.6016l2.1063-1.3203c1.7583-1.1025 3.5081-2.2185 5.257-3.336C1635.4778-.219 1636.578-.132 1640 1"/>
    <path fill="#bd121f"
          d="M1723 1233c10.654 2.5948 21.2175 5.4112 31.746 8.4766l4.2963 1.2464c2.9609.86 5.921 1.7225 8.8808 2.5866 3.7975 1.108 7.5978 2.2059 11.399 3.3015a2996 2996 0 0 1 8.8142 2.5634q2.1035.6128 4.2093 1.2176c1.9448.5593 3.8865 1.1295 5.828 1.7002l3.3462.9728C1804 1256 1804 1256 1805 1258c-.769 2.968-1.615 5.8544-2.543 8.7734l-.8463 2.7205c-.9247 2.963-1.8609 5.9221-2.7982 8.8811q-.973 3.0932-1.9456 6.1865C1774.244 1356.324 1746.909 1425.861 1715 1494l-1.1775 2.515c-8.2755 17.6471-8.2755 17.6471-12.76 25.9225-3.4234 6.407-6.7232 12.8607-9.9375 19.375-4.9003 9.8833-10.1398 19.5618-15.4814 29.2124-1.6998 3.0769-3.387 6.1604-5.0733 9.2446-13.7526 25.0623-28.3963 49.5909-43.6897 73.7422a910 910 0 0 0-4.1343 6.6328c-6.1558 9.9532-12.5982 19.6824-19.1838 29.3555q-1.4545 2.1443-2.9082 4.289c-18.4 27.126-18.4 27.126-26.4043 38.1485l-1.6453 2.273c-3.7629 5.1796-7.5922 10.2994-11.6047 15.2895-4.645-.5077-7.0956-2.339-10.6875-5.25a1024 1024 0 0 0-3.4805-2.7578l-1.8764-1.4815c-3.417-2.6396-6.9406-5.1291-10.4556-7.6357-7.8257-5.6029-15.4998-11.3884-23.1277-17.2573-5.4583-4.1933-10.9675-8.2328-16.7043-12.0396L1493 1702c0-4.0719.028-4.5335 2.2813-7.5195l1.527-2.0618 1.6917-2.2312a2651 2651 0 0 0 3.5977-4.875l1.9301-2.6133c11.1274-15.2295 21.6071-30.945 31.9722-46.6992l1.627-2.4697c16.614-25.2644 32.4814-50.9925 47.3964-77.296a966 966 0 0 1 5.7657-10.0312c21.0852-36.2718 39.9034-73.9984 57.2109-112.2031l1.477-3.2466c29.1635-64.2491 52.3544-130.5084 73.523-197.7534"/>
    <path fill="#004999"
          d="M2574 360c22.6662 90.62 30.85 187.8103 42.216 432.064-.0347 7.3361-.0502 14.6723-.065 22.0084A17811 17811 0 0 1 2616 859c-18.344.0528-36.6771-.0031-55.0183-.3723-3.3968-.0672-6.7937-.1259-10.1907-.1843q-3.2646-.0628-6.5293-.127l-3.0545-.0506-2.7905-.0605-2.4486-.047C2534 858 2534 858 2532 857l-.0245-3.0375c-.7898-96.7544-3.3799-193.0708-39.7951-467.4701l-.4724-2.386-.4162-2.0514c-.3367-2.3715-.339-4.6629-.2918-7.055q11.9067-2.2696 23.8135-4.5384 5.5316-1.054 11.063-2.1083 5.359-1.0215 10.718-2.0425 2.9937-.5705 5.9874-1.1413 3.7785-.7198 7.558-1.4355a2089 2089 0 0 0 8.2339-1.583l4.3352-.8334 2.0314-.3994c3.1847-.6083 5.9959-.9182 9.2596-.9182"/>
    <path fill="#0094d9"
          d="M2074 1008c10.43.572 20.7853 1.4189 31.168 2.5938q2.0664.23 4.1329.4593 4.2744.4756 8.548.9581c3.6418.411 7.2843.8166 10.9269 1.2204 2.8286.314 5.657.6302 8.4854.9472 1.9923.223 3.9848.4447 5.9774.6663l3.6645.4147c1.0598.119 2.1196.2382 3.2116.361 2.662.3498 5.2608.8172 7.8853 1.3792-.5625 13.2778-2.197 26.341-4 39.5l-.4598 3.3826c-5.6908 41.7287-12.4976 83.2374-21.0003 124.4865a1925 1925 0 0 0-1.5521 7.6543c-12.44 61.786-28.9044 122.9295-47.9878 182.9766l-.8913 2.81c-7.7261 24.3353-15.7917 48.5341-24.4212 72.565l-1.1107 3.1152c-1.033 2.8897-2.0779 5.7746-3.1276 8.6582l-.926 2.5968-.876 2.3774-.7487 2.062c-1.0086 2.0379-2.2176 3.3022-3.8985 4.8154q-4.7403-1.7751-9.4805-3.5508l-2.9947-1.1216a16328 16328 0 0 1-16.32-6.1228l-6.5954-2.4782-3.2969-1.2389c-5.5712-2.0912-11.1464-4.1706-16.7323-6.2222a2307 2307 0 0 1-6.2787-2.319 1021 1021 0 0 0-7.3354-2.684l-3.2122-1.196-2.74-1.0018C1970 1445 1970 1445 1969 1442c.8784-2.962 1.8386-5.803 2.9102-8.6953l.9647-2.674a1565 1565 0 0 1 2.0863-5.7405c1.8762-5.137 3.7182-10.2861 5.5661-15.4332l1.1464-3.1849c30.8692-85.8094 54.3395-174.1005 88.899-373.1065.7124-5.2773 1.4334-10.5534 2.1539-15.8297l.7446-5.4594z"/>
    <path fill="#18161b"
          d="M1901 799h40c10.6054 12.2102 10.6054 12.2102 12.8203 17.836 3.1253 7.299 7.1517 13.641 11.5547 20.2265a1466 1466 0 0 1 4.0117 6.2656l1.8843 2.9512a1009 1009 0 0 1 5.5798 8.8838l1.3367 2.1494.9822 1.5843c3.4708 5.5756 7.0452 11.0816 10.631 16.5837l1.8132 2.7855A15294 15294 0 0 0 1996 885l-.0067-1.7453c-.1033-28.1115-.015-56.1593 1.0067-84.2547h44l1 179h-41c-8.5736-9.0615-8.5736-9.0615-9.8867-13.3828-2.1776-6.1714-5.4879-11.2033-9.1133-16.6172a1255 1255 0 0 1-3.5547-5.582l-1.749-2.7486c-4.078-6.4175-8.1328-12.8498-12.189-19.2812a7999 7999 0 0 0-4.8159-7.6187l-1.6499-2.6086q-1.5605-2.467-3.122-4.9331c-2.3505-3.7176-4.6797-7.442-6.9195-11.2278-1.2634 27.9822-1.5436 55.996-2 84h-45z"/>
    <path fill="#0094d9"
          d="M2152 539c6.9437 52.0251 12.1758 104.1076 15.3125 156.5l.1246 2.0802c1.0616 17.799 1.9231 35.6007 2.5629 53.4198-3.1328 1.5664-6.4971 1.2424-9.9414 1.3164l-2.4824.0631c-2.7128.0666-5.4257.1253-8.1387.183l-2.798.0642c-20.5463.4678-41.0892.4786-61.6395.3733-1.2427-3.728-1.2673-7.2784-1.3945-11.168q-.0996-2.6235-.2005-5.2468l-.1056-2.837C2080.9537 672.2117 2074.7706 611.0624 2067 550c16.9974-2.7888 34.0184-5.3693 51.0742-7.7747 3.8747-.5483 7.7479-1.1065 11.6211-1.6648q3.7108-.5253 7.4219-1.0488l3.4936-.5079 3.213-.4464 2.8197-.4009C2149 538 2149 538 2152 539"/>
    <path fill="#18161b"
          d="M2151 799c9.6846-.0466 19.3692-.082 29.054-.1036a4885 4885 0 0 0 13.4946-.0473c4.3507-.0219 8.7014-.0337 13.0522-.0389q2.475-.0054 4.9498-.0217c20.7864-.1316 40.1325 2.741 56.1369 17.3365 11.7636 12.7533 16.1963 27.8893 15.6953 44.9219-1.642 16.9567-8.7804 30.3604-21.3515 41.7343-14.4386 11.5982-31.7135 12.6906-49.4063 12.4063L2196 915v63h-46c-.1509-41.649.1261-83.2902.5-124.9375l.0181-2.0189q.2336-26.0219.4819-52.0436m45 41v35l9.9375.0625 3.074.0276c12.7376.1437 12.7376.1437 23.9885-5.0901 4.2518-5.4826 5.6979-10.0871 5-17-1.8492-5.4388-5.3759-8.7736-10-12-3.4175-1.1392-6.0349-1.1134-9.6367-1.0977l-3.5457.0076-4.5051.0276z"/>
    <path fill="#868789"
          d="M107.371 811.4063C120.279 821.8949 127.3144 837.8859 130 854h-29l-6-13c-3.7675-7.0153-9.9956-12.1808-17.5-14.875-10.8797-3.0253-21.1248-2.6111-31.375 2.5C41.0624 831.6334 37.9114 834.9121 35 840l-1.1758 1.9844c-6.5304 12.6334-5.1403 28.9903-5.085 42.7761.0108 3.168.0001 6.3353-.0126 9.5032C28.3604 916.802 28.3604 916.802 35 938l1.0195 1.9492C40.3397 946.9866 48.2336 950.8766 56 953c11.7144 1.1422 22.2577-.2812 31.9375-7.25C100.389 935.1223 100.2531 920.7223 102 905H64v-24h65c2.2605 58.7741 2.2605 58.7741-13.75 77.875-12.7372 13.229-29.5913 20.9159-47.9575 21.418-18.1269.1682-36.1662-4.5833-49.5933-17.457-19.1208-20.6594-18.339-45.1726-18.1487-71.647.016-3.1698.006-6.3393-.0041-9.509-.007-3.1018.0009-6.2033.0132-9.305q.0069-2.1877.001-4.3755c-.029-19.8843 3.6212-37.225 17.4667-52.191 24.4697-23.2848 63.5373-24.405 90.3438-4.4022M1051 799h26c.7442 20.347 1.15 40.638 1 61l1.9744-1.4456C1091.922 849.9681 1103.5076 847.592 1118 849c9.9863 1.6704 20.4528 5.7248 26.5625 14.1563 7.5774 11.9722 10.753 24.891 10.7383 38.953l.013 2.816q.0085 2.9295.0019 5.8589c-.0032 2.9447.0203 5.8884.0456 8.833.0611 18.0912-1.5662 36.5021-14.7676 50.1875-10.6052 8.9761-23.132 11.1438-36.5761 10.3906-9.8583-.9543-19.0207-5.1984-26.0176-12.1953l-1 10h-26c-.8623-13.3582-1.1568-26.617-1.125-40l.0027-3.2923c.0415-45.2364.6535-90.4742 1.1223-135.7077m33 82c-5.2022 7.8204-6.2806 17.0072-6.6875 26.1875l-.114 2.5005c-.5161 13.4133-.5357 29.6017 8.8015 40.312 5.5603 4.4482 11.5853 6.5655 18.7617 6.3008 8.1587-1.0964 13.7801-3.859 18.8008-10.3985 4.1096-8.2973 4.9876-17.0135 5.25-26.1523l.1082-3.3127c.2896-12.048.6435-26.9193-7.7488-36.531-6.3133-5.8796-11.9024-7.3413-20.4258-7.1563-6.8606.6246-11.9142 3.3082-16.7461 8.25"/>
    <path fill="#868688"
          d="M1491 859c14.0174 11.7685 19.2998 27.0704 21 45v18h-82c3.1444 18.1592 3.1444 18.1592 15 30 9.5624 5.2322 19.6699 4.4532 30 2 5.5103-1.9355 9.706-5.1704 14.043-9.0234 1.957-.9766 1.957-.9766 4.2695-.547 3.7284 2.1786 6.5021 4.989 9.5 8.0704l1.8105 1.8008c4.377 4.432 4.377 4.432 4.377 6.6992-15.3244 14.748-32.596 19.6175-53.254 19.2773-14.501-.5932-28.5511-5.7604-38.6093-16.4687-13.7917-18.1284-16.4952-42.2033-13.6406-64.2773 2.498-15.8367 8.5088-30.5959 21.1758-40.9688 20.1859-13.5476 46.2726-13.3088 66.3281.4375m-50.957 18.164c-5.3288 4.7889-8.7826 10.7775-10.043 17.836v9h55c0-10.1366-2.2485-18.2358-9-26-10.3367-9.294-25.0936-8.7191-35.957-.836"/>
    <path fill="#868789"
          d="m463.8125 848.6875 2.393.017c13.188.2729 26.2953 5.0927 35.9898 14.2642 13.8142 15.5485 15.952 33.655 16.754 53.5079l.1042 2.5649C519 921 519 921 518 922c-2.5559.095-5.0847.1256-7.6409.1135l-2.424.0005c-2.6568-.0007-5.3135-.0085-7.9703-.0163a11712 11712 0 0 0-5.511-.0043 9751 9751 0 0 1-14.5345-.0247c-4.94-.0102-9.8798-.0148-14.8197-.0199C455.3997 922.0381 445.7 922.021 436 922c.4456 2.3961.9 4.79 1.3594 7.1836l.3764 2.0394c1.6007 8.2524 4.7778 14.386 11.4595 19.5622 8.9236 6.007 19.2346 5.9288 29.5117 4.1484 6.082-1.7243 12.6232-4.9284 16.879-9.7188C497 944 497 944 498.9491 944.082c2.5503 1.1416 3.9562 2.5663 5.8633 4.6055 3.5537 3.7004 7.2473 7.029 11.1875 10.3125-7.8696 10.745-21.4488 17.523-34.25 20.3125-17.0698 2.5863-35.88 1.1027-50.1875-9.3125-13.63-11.1007-19.9148-25.9335-21.9336-43.168-1.7737-19.379.3083-38.8758 10.3711-55.832l1.1445-2.0078c7.0192-11.062 19.4184-16.6454 31.7315-19.5996 3.644-.6735 7.239-.733 10.9365-.7051m-19.504 29.8945C438.2809 885.758 436 894.8015 436 904h56c-1.926-12.5196-3.2193-20.8543-13.0273-28.664-10.2406-6.9353-25.715-5.1245-34.6641 3.246"/>
    <path fill="#19171c" d="M1747 799h45v179h-45z"/>
    <path fill="#858689"
          d="M922.6328 859.0078C936.267 870.6885 941.5736 885.4885 943 903c.9202 21.9046.5305 45.5464-15.125 62.6875-11.2951 10.4566-25.9046 14.9622-41.0913 14.7173-15.2087-.6454-27.36-6.4205-37.7837-17.4048-11.4433-13.5438-13.3883-29.5529-13.25-46.75l.0227-3.7227c.2205-18.668 2.142-35.0646 15.2273-49.5273 5.9725-5.249 12.4744-9.3955 20-12l1.9258-.6797c16.3073-4.623 36.2572-1.5695 49.707 8.6875M869 882c-6.5677 9.514-6.3412 21.2691-6.3125 32.375l-.0488 3.75c-.0057 10.6932.8762 22.5388 8.3613 30.875 6.088 5.0114 12.536 7.3103 20.4375 6.875 7.7055-.9289 13.391-3.6023 18.246-9.754 8.708-14.0306 8.557-35.5177 5.079-51.2228-1.685-6.6522-3.5673-12.4557-9.2-16.7615L903 876.6875l-2.5625-1.4883C889.4695 869.8032 876.9349 873.096 869 882"/>
    <path fill="#868789"
          d="M713 857c9.0947 7.206 14.1235 16.5688 16 28 .3816 4.9538.5095 9.9093.625 14.875l.1172 3.914c.4922 17.7889.1938 35.5488-.2422 53.336q-.0725 3.0566-.1445 6.1133c-.116 4.9206-.2358 9.8411-.3555 14.7617h-26c-.7888-10.3948-1.0744-20.6844-1.0273-31.1094l.0166-3.828c.0277-5.2695.0625-10.5388.1066-15.8082.0305-3.8921.048-7.7841.0643-11.6763l.0407-3.5458c.2277-16.4157.2277-16.4157-6.2009-31.0323-7.6305-6.3034-14.1906-7.8895-24-7-5.8534 1.6887-12.0722 4.5822-15.1523 10.043-3.2706 6.9485-3.9932 13.4317-4.053 21.0737l-.03 2.3967c-.0314 2.597-.0563 5.1942-.0811 7.7913q-.0309 2.7113-.063 5.4224c-.055 4.7444-.1045 9.4889-.1528 14.2334-.0504 4.8465-.106 9.693-.1612 14.5395-.1073 9.5-.2083 19-.3066 28.5h-26c-.7787-32.252-1.105-64.4312-.5625-96.6875l.0388-2.311c.1583-9.3342.3386-18.6678.5237-28.0015h26l1 9 2.125-1.4258c17.7937-11.677 39.4045-13.686 57.875-1.5742m550-58h26a2839 2839 0 0 1 .5 17.625l.0738 2.9252c.3985 16.6945.455 33.3805.4223 50.0787l-.0053 3.1559c-.0182 10.6589-.0457 21.3176-.101 31.9764-.0193 4.081-.0305 8.162-.0401 12.243a1445 1445 0 0 1-.0307 5.7503c-.0723 9.9438-.0163 19.482 2.181 29.2455 4.87 1.8896 9.2273 2.4008 14.375 2.625L1314 955v23c-31.5603 1.107-31.5603 1.107-42-8.1875-12.7397-14.7945-10.2923-36.0585-10.2305-54.3477q.0018-3.5535.0014-7.1072c.0016-4.953.0098-9.9059.0233-14.8588.0168-6.2527.0207-12.5053.0202-18.758.0006-25.2704.1584-50.4893 1.1856-75.7408"/>
    <path fill="#858688"
          d="M327.4883 857.4375C329 859 329 859 329 863c-1.3452 1.7834-1.3452 1.7834-3.211 3.5664l-2.0234 1.9707-2.1406 2.0254a1828 1828 0 0 0-4.1484 4.004l-1.8726 1.7794c-1.8093 1.766-1.8093 1.766-3.604 4.6541-3.9763-.781-6.6785-2.612-10-4.8437-5.121-2.9606-11.4877-2.9659-17.1523-1.6602-6.0947 2.0705-10.8841 5.3717-14.0977 11.0664-4.6453 10.7062-4.0829 22.7895-4.164 34.2344a5311 5311 0 0 1-.0587 5.0603c-.051 4.3991-.0908 8.7983-.1282 13.1975-.0403 4.5053-.0913 9.0104-.1413 13.5156-.0963 8.8098-.1798 17.6197-.2578 26.4297h-26c-.9573-14.4352-1.1566-28.786-1.125-43.25l.0027-3.5462c.0235-26.7409.5303-53.4703 1.1223-80.2038h26l1 10 2.375-2.1875c16.704-13.835 40.5005-13.0115 58.1133-1.375"/>
</svg>
